<?xml version="1.0" encoding="UTF-8" standalone="no"?>
<svg
   xmlns:dc="http://purl.org/dc/elements/1.1/"
   xmlns:cc="http://creativecommons.org/ns#"
   xmlns:rdf="http://www.w3.org/1999/02/22-rdf-syntax-ns#"
   xmlns:svg="http://www.w3.org/2000/svg"
   xmlns="http://www.w3.org/2000/svg"
   xmlns:sodipodi="http://sodipodi.sourceforge.net/DTD/sodipodi-0.dtd"
   xmlns:inkscape="http://www.inkscape.org/namespaces/inkscape"
   version="1.1"
   id="Capa_1"
   x="0px"
   y="0px"
   viewBox="0 0 612 612"
   style="enable-background:new 0 0 612 612;"
   xml:space="preserve"
   sodipodi:docname="favicon.svg"
   inkscape:version="1.0.1 (3bc2e813f5, 2020-09-07)"><metadata
   id="metadata13"><rdf:RDF><cc:Work
       rdf:about=""><dc:format>image/svg+xml</dc:format><dc:type
         rdf:resource="http://purl.org/dc/dcmitype/StillImage" /></cc:Work></rdf:RDF></metadata><defs
   id="defs11" /><sodipodi:namedview
   pagecolor="#ffffff"
   bordercolor="#666666"
   borderopacity="1"
   objecttolerance="10"
   gridtolerance="10"
   guidetolerance="10"
   inkscape:pageopacity="0"
   inkscape:pageshadow="2"
   inkscape:window-width="1280"
   inkscape:window-height="749"
   id="namedview9"
   showgrid="false"
   inkscape:zoom="0.44117647"
   inkscape:cx="-14.713383"
   inkscape:cy="206.36242"
   inkscape:window-x="0"
   inkscape:window-y="27"
   inkscape:window-maximized="1"
   inkscape:current-layer="g6" />
<style
   type="text/css"
   id="style2">
	.st0{fill:#9C27B0;}
</style>
<g
   id="g6">
	<path
   class="st0"
   d="M547.6,94.8C497.1,35.9,423.5,2.1,345.8,2.1c-77.8,0-151.3,33.8-201.8,92.7C102.5,143,79.6,204.6,79.6,268.3   c0,11.6,0.8,23,2.3,34.4h35.3c-1.1-7.1-1.9-14.2-2.3-21.4h81.8c0.2,7.3,0.7,14.3,1.2,21.4h26.1c-0.6-7.1-1.1-14.2-1.3-21.4h110.2   v61.1c5.8,2.6,11.2,6.2,15.9,10.8l10.1,10v-81.9H469c-1.1,36.5-6.8,71-15.9,101.6c-27.5-7-56.6-11.1-86.8-12.4l29.1,28.8   c16.9,1.9,33.5,4.7,49.2,8.5c-3.9,9.9-8.2,19.2-12.9,27.9c7.3,9,11.6,20.2,12,31.9c10.2-15.3,19.2-32.9,26.6-52.6   c14.3,4.7,27.6,10.2,39.7,16.5c-19.3,19.5-41.8,35.2-66.2,46.6v37.8c39.7-15.7,75.4-40.9,103.9-74c41.5-48.1,64.4-109.8,64.4-173.5   C612,204.5,589.1,142.9,547.6,94.8z M196.6,255.3h-81.8c2.7-47.4,19.9-92.8,49.4-130.1c14.8,8.1,31.2,15.1,48.9,21   C203.5,178.9,197.7,215.8,196.6,255.3z M221.3,121.6c-14.3-4.7-27.5-10.2-39.6-16.5c22.3-22.5,48.7-40,77.7-51.7   C244.4,71.8,231.5,94.9,221.3,121.6z M332.8,255.3H222.6c1.1-36.5,6.8-71,15.9-101.6c29.8,7.6,61.4,11.8,94.3,12.7L332.8,255.3   L332.8,255.3z M332.8,139.9c-29.6-0.8-58.8-4.6-85.7-11.2c17.5-44.7,43-77.7,72-90.5c4.6-0.5,9.1-0.9,13.7-1.2L332.8,139.9   L332.8,139.9z M576.8,255.3H495c-1-39.5-6.9-76.4-16.5-109.1c17.8-5.9,34.2-12.9,49-21C556.9,162.4,574.1,207.8,576.8,255.3z    M358.8,37.1c4.6,0.3,9.2,0.7,13.7,1.2c29,12.8,54.5,45.8,72,90.5c-27,6.6-56.1,10.3-85.8,11.1V37.1z M358.8,255.3v-88.9   c32.9-0.9,64.5-5.1,94.3-12.7c9.1,30.5,14.8,65.1,15.9,101.6L358.8,255.3L358.8,255.3z M432.2,53.5c28.9,11.6,55.4,29.2,77.7,51.7   c-12.1,6.3-25.3,11.8-39.7,16.5C460.1,94.9,447.2,71.8,432.2,53.5z M527.5,411.4c-14.8-8.2-31.3-15.2-49-21   c9.6-32.7,15.5-69.6,16.5-109.1h81.8C574.1,328.7,556.9,374.2,527.5,411.4z M417.7,484v-14.7c0-7.2-2.9-14.1-8-19.1l-79.3-78.5   c-5-5-11.8-7.8-18.9-7.8h-40v-15c0-11.2-9-20.2-20.2-20.2H20.2C9,328.7,0,337.7,0,348.9V484L417.7,484L417.7,484z M295.3,390.3   c0-1.7,1.4-3.2,3.2-3.2H313c0.8,0,1.6,0.3,2.2,0.9l62.1,59.3c2.1,2,0.7,5.5-2.2,5.5h-76.8c-1.8,0-3.2-1.4-3.2-3.2V390.3   L295.3,390.3z M417.7,495.2v44.7c0,11.2-9,20.2-20.2,20.2h-21.6c-3.9-26.8-27-47.4-54.9-47.4c-27.8,0-50.9,20.6-54.8,47.4H156.8   c-3.9-26.8-27-47.4-54.8-47.4s-50.9,20.6-54.8,47.4H20.2C9,560.1,0,551,0,539.9v-44.7L417.7,495.2L417.7,495.2z M321.1,526.2   c-23.1,0-41.9,18.7-41.9,41.9s18.7,41.9,41.9,41.9c23.1,0,41.9-18.7,41.9-41.9S344.3,526.2,321.1,526.2z M321.1,589   c-11.6,0-20.9-9.4-20.9-20.9s9.4-20.9,20.9-20.9c11.6,0,20.9,9.4,20.9,20.9S332.7,589,321.1,589z M102,526.2   c-23.1,0-41.9,18.7-41.9,41.9s18.7,41.9,41.9,41.9c23.1,0,41.9-18.7,41.9-41.9S125.2,526.2,102,526.2z M102,589   c-11.6,0-20.9-9.4-20.9-20.9s9.4-20.9,20.9-20.9c11.6,0,20.9,9.4,20.9,20.9S113.6,589,102,589z"
   id="path4"
   style="fill:#0069d9;fill-opacity:1" />
</g>
</svg>
