<?xml version="1.0" standalone="no"?>
<!DOCTYPE svg PUBLIC "-//W3C//DTD SVG 20010904//EN"
 "http://www.w3.org/TR/2001/REC-SVG-20010904/DTD/svg10.dtd">
<svg version="1.0" xmlns="http://www.w3.org/2000/svg"
 width="700.000000pt" height="700.000000pt" viewBox="0 0 700.000000 700.000000"
 preserveAspectRatio="xMidYMid meet">
<metadata>
Created by potrace 1.11, written by Peter Selinger 2001-2013
</metadata>
<g transform="translate(0.000000,700.000000) scale(0.100000,-0.100000)"
fill="#000000" stroke="none">
<path d="M3750 6969 c-577 -48 -1051 -212 -1505 -520 -608 -412 -1055 -1047
-1235 -1754 -74 -289 -95 -459 -95 -760 1 -212 11 -374 25 -389 6 -6 207 -10
373 -7 26 1 27 3 22 39 -2 20 -7 62 -10 92 -4 30 -8 67 -9 83 -2 15 2 27 8 28
6 0 217 1 469 2 l457 2 0 -30 c1 -49 12 -210 15 -213 2 -3 169 -5 257 -3 l38
1 -6 123 -7 122 631 0 631 0 0 -310 c0 -170 0 -329 0 -353 1 -37 5 -45 29 -55
57 -25 112 -68 204 -159 32 -32 59 -58 61 -58 1 0 2 207 2 461 0 274 4 463 9
467 7 4 1124 7 1238 3 11 -1 16 -8 14 -18 -2 -10 -7 -76 -11 -148 -4 -71 -8
-143 -10 -160 -3 -16 -7 -55 -11 -85 -4 -30 -8 -63 -10 -74 -2 -10 -6 -44 -9
-75 -4 -31 -9 -64 -11 -73 -3 -10 -7 -30 -10 -45 -5 -30 -22 -122 -30 -163
-14 -69 -76 -306 -82 -311 -4 -4 -52 4 -107 17 -157 37 -384 74 -535 89 -36 3
-76 8 -90 10 -14 2 -77 7 -141 10 l-117 7 167 -165 c182 -181 155 -165 306
-183 28 -3 61 -7 75 -10 14 -2 61 -11 105 -19 44 -8 113 -21 153 -30 40 -8 75
-15 78 -15 14 0 5 -25 -82 -209 l-54 -114 33 -51 c47 -71 86 -173 93 -245 4
-33 11 -58 15 -55 29 18 187 316 255 481 20 48 40 92 44 97 10 10 196 -58 344
-127 l109 -51 -89 -84 c-163 -154 -421 -333 -606 -418 -32 -15 -58 -32 -59
-38 -3 -30 -5 -412 -2 -418 2 -4 38 8 81 26 455 195 874 515 1175 896 37 47
71 90 75 95 13 17 128 187 154 230 92 148 214 411 280 605 40 117 92 325 112
445 10 55 19 111 21 125 13 76 20 219 20 410 0 272 -8 346 -61 620 -40 205
-149 520 -246 715 -207 413 -521 798 -865 1060 -32 24 -62 48 -68 52 -141 112
-456 287 -660 368 -153 61 -415 140 -530 160 -153 28 -261 43 -360 51 -100 9
-367 10 -455 3z m46 -397 c8 -5 11 -177 11 -590 l0 -582 -106 5 c-273 14 -503
43 -721 90 -41 9 -88 19 -105 22 -45 7 -49 16 -26 66 12 25 21 49 21 52 0 16
132 269 185 354 158 255 339 438 544 550 26 14 67 25 105 28 33 3 63 7 65 9 6
6 15 5 27 -4z m489 -22 c17 -6 53 -25 80 -43 180 -113 352 -294 489 -517 97
-155 234 -446 219 -461 -9 -8 -136 -37 -238 -54 -16 -3 -52 -10 -80 -15 -56
-10 -121 -19 -180 -25 -22 -2 -62 -7 -90 -10 -98 -10 -221 -18 -300 -19 l-80
-1 -1 582 c-1 527 0 582 15 585 24 5 132 -9 166 -22z m-1372 -232 c-108 -137
-268 -422 -343 -613 -17 -44 -35 -83 -39 -87 -10 -11 -230 72 -370 140 l-82
40 68 66 c172 165 405 327 638 442 83 41 156 74 163 74 8 0 -8 -28 -35 -62z
m2212 -14 c244 -119 455 -266 643 -447 l63 -61 -58 -27 c-109 -52 -168 -77
-263 -112 -147 -55 -130 -59 -169 41 -72 187 -197 418 -309 572 -18 25 -36 50
-40 55 -4 6 -16 21 -27 34 l-20 24 25 -8 c14 -4 84 -35 155 -71z m-3035 -842
c65 -29 236 -96 296 -116 l51 -17 -19 -67 c-10 -37 -20 -76 -22 -87 -2 -11 -9
-38 -15 -61 -10 -37 -25 -110 -37 -174 -2 -14 -8 -45 -14 -70 -5 -25 -12 -65
-16 -90 -3 -25 -7 -52 -9 -60 -1 -8 -5 -35 -9 -60 -5 -41 -8 -64 -20 -170 -9
-77 -23 -279 -25 -357 l-1 -53 -469 0 -469 0 4 48 c8 101 26 227 48 337 44
218 123 443 231 658 71 139 102 192 208 344 l71 101 86 -43 c47 -23 105 -52
130 -63z m4009 19 c214 -289 390 -698 455 -1056 3 -17 8 -41 10 -55 10 -49 25
-171 30 -247 l3 -43 -468 0 -469 0 -1 53 c0 81 -15 299 -23 347 -3 14 -7 54
-11 90 -3 36 -8 74 -10 85 -2 11 -6 39 -9 62 -3 22 -7 52 -10 65 -3 12 -8 39
-11 58 -2 19 -7 46 -10 60 -3 14 -8 39 -11 55 -3 17 -12 59 -20 95 -9 36 -17
74 -20 85 -2 11 -14 59 -27 107 l-23 87 90 31 c121 43 305 122 391 168 47 26
74 35 82 29 7 -5 35 -39 62 -76z m-3234 -271 c96 -20 243 -48 295 -55 14 -2
41 -6 60 -9 58 -9 101 -15 180 -21 41 -4 80 -8 86 -10 7 -2 79 -7 160 -10 82
-4 152 -9 155 -11 3 -2 6 -231 6 -509 l0 -505 -633 0 c-502 0 -633 3 -629 13
2 6 6 71 10 144 3 72 7 140 9 150 2 10 7 48 10 85 4 37 9 77 11 90 2 13 6 41
10 63 25 173 68 383 106 520 28 99 27 97 46 91 10 -2 63 -14 118 -26z m2327
-5 c23 -79 67 -253 71 -280 3 -16 12 -64 20 -105 22 -102 49 -293 63 -435 1
-16 6 -86 9 -155 4 -69 8 -129 9 -135 1 -7 -216 -11 -629 -13 l-630 -2 0 504
c0 277 2 506 5 509 3 2 68 8 145 11 77 4 154 9 170 11 17 2 59 7 95 10 59 6
119 13 235 30 22 3 87 15 145 26 58 12 116 23 130 25 14 3 48 11 75 19 66 18
77 16 87 -20z m1395 -1424 c9 -1 11 -12 8 -33 -2 -18 -7 -62 -10 -98 -3 -36
-7 -75 -9 -87 -3 -11 -7 -36 -10 -54 -5 -33 -20 -109 -31 -159 -3 -14 -7 -34
-9 -45 -14 -71 -96 -319 -138 -415 -76 -172 -168 -335 -281 -495 l-70 -100
-102 50 c-149 74 -322 146 -421 175 l-41 12 38 143 c34 133 90 417 104 530 3
28 8 64 10 80 2 17 7 55 10 85 2 30 8 84 11 120 7 77 12 153 13 232 1 44 5 57
18 60 13 2 862 1 910 -1z"/>
<path d="M140 3219 c-58 -26 -87 -53 -116 -111 l-24 -47 3 -798 2 -798 2385 0
2385 0 -1 120 c-1 191 33 146 -538 711 -409 406 -500 491 -546 513 -54 25 -59
25 -314 28 -142 1 -261 5 -265 8 -3 3 -6 54 -7 113 -2 120 -15 161 -65 211
-71 72 59 66 -1474 68 -1372 3 -1380 3 -1425 -18z m3440 -648 c18 -1 25 -8
280 -252 102 -97 210 -201 240 -229 130 -121 211 -203 220 -220 7 -14 6 -23
-6 -34 -14 -15 -68 -16 -470 -16 -420 1 -455 2 -462 18 -3 9 -7 174 -7 365 0
306 2 350 16 360 13 10 83 13 189 8z"/>
<path d="M2 1045 c3 -319 3 -319 70 -385 56 -57 84 -63 285 -65 l181 -2 17 65
c45 182 178 340 354 422 115 53 286 69 410 36 200 -52 363 -197 439 -392 11
-27 22 -64 25 -81 3 -18 7 -36 10 -40 6 -9 1241 -12 1250 -3 3 3 7 19 10 35
26 144 139 310 267 393 62 40 146 79 187 87 244 50 449 -6 611 -165 78 -77
154 -209 167 -294 4 -22 11 -46 16 -52 13 -16 273 -11 327 6 51 16 122 89 138
142 7 21 11 142 10 309 l-1 274 -2388 0 -2388 1 3 -291z"/>
<path d="M1043 965 c-56 -15 -122 -46 -151 -70 -9 -7 -32 -26 -51 -42 -50 -40
-108 -136 -133 -216 -26 -89 -22 -224 11 -306 106 -264 412 -382 664 -255 192
98 297 318 250 526 -34 150 -123 263 -260 329 -76 38 -92 41 -181 45 -66 3
-113 -1 -149 -11z m201 -237 c55 -16 128 -90 148 -148 36 -111 -14 -237 -115
-288 -158 -79 -338 25 -346 200 -8 167 148 285 313 236z"/>
<path d="M3531 959 c-291 -95 -424 -429 -275 -693 28 -50 137 -166 156 -166 5
0 22 -8 36 -19 67 -46 220 -69 320 -49 126 26 277 140 329 248 58 120 68 276
23 392 -46 123 -156 233 -279 279 -84 32 -227 36 -310 8z m265 -255 c124 -76
151 -244 56 -355 -111 -130 -314 -106 -392 47 -25 50 -31 109 -16 171 12 56
92 143 146 161 63 20 152 10 206 -24z"/>
</g>
</svg>
